<?xml version="1.0" encoding="UTF-8" standalone="no"?>
<svg
   xmlns:lucid="lucid"
   xmlns:dc="http://purl.org/dc/elements/1.1/"
   xmlns:cc="http://creativecommons.org/ns#"
   xmlns:rdf="http://www.w3.org/1999/02/22-rdf-syntax-ns#"
   xmlns:svg="http://www.w3.org/2000/svg"
   xmlns="http://www.w3.org/2000/svg"
   xmlns:xlink="http://www.w3.org/1999/xlink"
   xmlns:sodipodi="http://sodipodi.sourceforge.net/DTD/sodipodi-0.dtd"
   xmlns:inkscape="http://www.inkscape.org/namespaces/inkscape"
   width="1100"
   height="900"
   version="1.1"
   id="svg4639"
   sodipodi:docname="diagram.svg"
   inkscape:version="0.92.4 (5da689c313, 2019-01-14)">
  <metadata
     id="metadata4645">
    <rdf:RDF>
      <cc:Work
         rdf:about="">
        <dc:format>image/svg+xml</dc:format>
        <dc:type
           rdf:resource="http://purl.org/dc/dcmitype/StillImage" />
      </cc:Work>
    </rdf:RDF>
  </metadata>
  <defs
     id="defs4643" />
  <sodipodi:namedview
     pagecolor="#ffffff"
     bordercolor="#666666"
     borderopacity="1"
     objecttolerance="10"
     gridtolerance="10"
     guidetolerance="10"
     inkscape:pageopacity="0"
     inkscape:pageshadow="2"
     inkscape:window-width="2560"
     inkscape:window-height="1376"
     id="namedview4641"
     showgrid="false"
     inkscape:zoom="0.93966635"
     inkscape:cx="710.14737"
     inkscape:cy="414.8962"
     inkscape:window-x="0"
     inkscape:window-y="27"
     inkscape:window-maximized="1"
     inkscape:current-layer="svg4639" />
  <g
     transform="translate(-580 -340)"
     lucid:page-tab-id="0_0"
     id="g4637">
    <path
       d="M600 540h460v340H600z"
       stroke="#000"
       stroke-opacity="0"
       stroke-width="2"
       fill="#e5e5e5"
       id="path4199" />
    <use
       xlink:href="#a"
       transform="matrix(1,0,0,1,605,545) translate(0 323.79999999999995)"
       id="use4201" />
    <use
       xlink:href="#b"
       transform="matrix(1,0,0,1,605,545) translate(60.80000000000001 323.79999999999995)"
       id="use4203" />
    <path
       d="M1200 920h160v120h-160z"
       stroke="#000"
       stroke-width="2"
       fill="#fff"
       id="path4205" />
    <use
       xlink:href="#c"
       transform="matrix(1,0,0,1,1205,925) translate(11.649999999999991 58.6)"
       id="use4207" />
    <use
       xlink:href="#d"
       transform="matrix(1,0,0,1,1205,925) translate(99.5 58.6)"
       id="use4209" />
    <path
       d="M1200 740h160v120h-160z"
       stroke="#000"
       stroke-width="2"
       fill="#fff"
       id="path4211" />
    <use
       xlink:href="#e"
       transform="matrix(1,0,0,1,1205,745) translate(54.525 47.8)"
       id="use4213" />
    <use
       xlink:href="#f"
       transform="matrix(1,0,0,1,1205,745) translate(45.599999999999994 69.4)"
       id="use4215" />
    <path
       d="M880 740h160v120H880z"
       stroke="#000"
       stroke-width="2"
       fill="#fff"
       id="path4217" />
    <use
       xlink:href="#g"
       transform="matrix(1,0,0,1,885,745) translate(54.525 47.8)"
       id="use4219" />
    <use
       xlink:href="#h"
       transform="matrix(1,0,0,1,885,745) translate(42.1 69.4)"
       id="use4221" />
    <path
       d="M1280 468c0 6.63-26.86 12-60 12s-60-5.37-60-12v-96c0-6.63 26.86-12 60-12s60 5.37 60 12z"
       stroke="#000"
       stroke-width="2"
       fill="#fff"
       id="path4223" />
    <path
       d="M1280 372c0 6.63-26.86 12-60 12s-60-5.37-60-12"
       stroke="#000"
       stroke-width="2"
       fill="none"
       id="path4225" />
    <use
       xlink:href="#i"
       transform="matrix(1,0,0,1,1165,389) translate(6.024999999999999 35.8)"
       id="use4227" />
    <use
       xlink:href="#j"
       transform="matrix(1,0,0,1,1165,389) translate(36.05 57.4)"
       id="use4229" />
    <path
       d="M1257.52 624l5.82 13.8 3.85 10.3 3.04 9.4 2.58 9.23 2.22 9.46 1.9 10 1.6 10.88 1.27 12.1.87 13.76.3 15.04-2 .04-.3-15-.85-13.68-1.26-12-1.6-10.8-1.88-9.93-2.2-9.37-2.55-9.15-3.03-9.32-3.82-10.23-5.8-13.73-1.8-4.06h2.18zm-35.34-113.34l1.26 12 1.6 10.8 1.88 9.93 2.2 9.37 2.55 9.15 3.03 9.32 3.8 10.22 7.9 17.68h-2.18l-7.56-16.92-3.85-10.32-3.04-9.4-2.58-9.23-2.22-9.46-1.9-10-1.6-10.88-1.27-12.1-.72-11.26 2-.13z"
       id="path4231" />
    <path
       d="M1281 739h-2l-.02-1 2-.05zM1225.1 498.38l-9.28.24 4.26-14.38z"
       id="path4233" />
    <path
       d="M1226.5 499.34l-12.03.3L1220 481zm-9.33-1.76l6.52-.17-3.53-9.93z"
       id="path4235" />
    <use
       xlink:href="#k"
       transform="matrix(1,0,0,1,1215.689160777015,599.1377051009886) translate(0 14.4)"
       id="use4237" />
    <path
       d="M1280 918v-38.5"
       stroke="#000"
       stroke-width="2"
       fill="none"
       id="path4239" />
    <path
       d="M1281 919h-2v-1.03h2z"
       id="path4241" />
    <path
       d="M1280 864.24l4.64 14.26h-9.28z"
       stroke="#000"
       stroke-width="2"
       id="path4243" />
    <path
       d="M1070.94 620.54h.15l-11.85 6.1-21 11.5-13.16 7.94-9.76 6.47-7.74 5.6-6.36 5.05-5.36 4.62-4.58 4.3-3.98 4.05-3.47 3.86-3.07 3.7-2.72 3.58-2.4 3.5-2.18 3.4-1.93 3.34-1.73 3.3-1.54 3.3-1.38 3.27-1.22 3.3-1.07 3.3-.92 3.32-.8 3.4-.66 3.45-.52 3.53-.38 3.64-.24 3.76-.06 2.92-2-.04.06-2.97.24-3.83.4-3.72.53-3.62.67-3.53.82-3.47.95-3.42 1.1-3.37 1.24-3.36 1.4-3.35 1.6-3.36 1.76-3.38 1.97-3.42 2.2-3.48 2.48-3.54 2.76-3.65 3.13-3.78 3.54-3.92 4.03-4.1 4.65-4.37 5.4-4.68 6.44-5.08 7.8-5.67 9.82-6.5 13.22-8 21.07-11.52 12.64-6.5zm148.16-120.98l-.02.14-.82 3.47-.95 3.42-1.1 3.37-1.24 3.36-1.4 3.35-1.6 3.36-1.76 3.38-1.97 3.42-2.2 3.48-2.48 3.54-2.76 3.65-3.13 3.78-3.54 3.92-4.03 4.1-4.65 4.37-5.4 4.68-6.44 5.08-7.8 5.67-9.82 6.5-13.23 8-33.96 17.5v-2.16h-.17l33.14-17.08 13.14-7.94 9.76-6.47 7.74-5.6 6.36-5.05 5.36-4.6 4.58-4.32 3.98-4.05 3.47-3.86 3.07-3.7 2.72-3.58 2.4-3.5 2.18-3.4 1.93-3.34 1.73-3.3 1.54-3.3 1.38-3.26 1.22-3.3 1.07-3.3.92-3.32.8-3.4.02-.1z"
       id="path4245" />
    <path
       d="M961.02 738l-.02 1h-2l.02-1.05zM1222.83 498.88l-9.22-.94 6.07-13.72z"
       id="path4247" />
    <path
       d="M1224.1 500.02l-11.96-1.23L1220 481zm-9.02-2.93l6.48.65-2.22-10.3z"
       id="path4249" />
    <use
       xlink:href="#l"
       transform="matrix(1,0,0,1,1070.9386292476531,598.9393992661286) translate(0 14.4)"
       id="use4251" />
    <path
       d="M640 560h160v120H640z"
       stroke="#000"
       stroke-width="2"
       fill="#fff"
       id="path4253" />
    <use
       xlink:href="#m"
       transform="matrix(1,0,0,1,645,565) translate(33.525 47.8)"
       id="use4255" />
    <use
       xlink:href="#n"
       transform="matrix(1,0,0,1,645,565) translate(50.55 69.4)"
       id="use4257" />
    <path
       d="M819.42 621.52l.13.02 4.38.84 4.3 1 4.2 1.2 4.13 1.33 4.04 1.52 3.97 1.68 3.9 1.83 3.8 2 3.76 2.18 3.67 2.35 3.6 2.5 3.5 2.68 3.43 2.85 3.34 3.02 3.25 3.2 3.15 3.37 3.04 3.55 2.95 3.72 2.8 3.9 2.7 4.07 2.55 4.25 2.4 4.4 2.26 4.6 2.08 4.72 1.9 4.88 1.74 5.03 1.54 5.17 1.34 5.3 1.12 5.4.9 5.53.7 5.63.45 5.74.22 5.8V738"
       stroke="#000"
       stroke-width="2"
       fill="none"
       id="path4259" />
    <path
       d="M804.23 620.27l14.6-3.45-.77 9.24z"
       stroke="#000"
       stroke-width="2"
       id="path4261" />
    <path
       d="M911.67 739h-2v-1.02h2z"
       id="path4263" />
    <path
       d="M980 360h144v102c-24.05-17.03-39.02-17.03-48.1-17.03-14.4 0-33.55 17.03-47.95 17.03-8.93 0-24.05 0-47.95-17.03z"
       stroke="#000"
       stroke-width="2"
       fill="#fff"
       id="path4265" />
    <path
       d="M988 369h144v102c-24.05-17.03-39.02-17.03-48.1-17.03-14.4 0-33.55 17.03-47.95 17.03-8.93 0-24.05 0-47.95-17.03z"
       stroke="#000"
       stroke-width="2"
       fill="#fff"
       id="path4267" />
    <path
       d="M996 378h144v102c-24.05-17.03-39.02-17.03-48.1-17.03-14.4 0-33.55 17.03-47.95 17.03-8.93 0-24.05 0-47.95-17.03z"
       stroke="#000"
       stroke-width="2"
       fill="#fff"
       id="path4269" />
    <use
       xlink:href="#o"
       transform="matrix(1,0,0,1,1001,383) translate(46.85 30.299999999999997)"
       id="use4271" />
    <use
       xlink:href="#p"
       transform="matrix(1,0,0,1,1001,383) translate(30.025 51.9)"
       id="use4273" />
    <path
       d="M1062.83 480l1.6 4.14 1.34 3.93 1.1 3.76.9 3.6.7 3.5.56 3.37.4 3.3.24 3.24.1 3.2v3.15l-.17 3.13-.3 3.14-.4 3.17-.58 3.2-.7 3.24-.9 3.32-1.05 3.42-1.27 3.55-1.5 3.7-1.78 3.92-2.1 4.15-2.53 4.5-3.07 4.97-3.78 5.6-4.83 6.53-6.6 8.17-10.63 12.1-46.24 50-7.7 9.53-5.83 7.9-4.7 6.93-3.87 6.3-3.28 5.85-2.8 5.52-2.38 5.26-2.05 5.1-1.76 4.92-1.5 4.83-1.27 4.76-1.04 4.74-.74 4.1-1.97-.34.73-4.15 1.05-4.8 1.3-4.85 1.5-4.9 1.8-5.02 2.08-5.16 2.43-5.34 2.82-5.6 3.32-5.9 3.92-6.38 4.74-7 5.9-7.98 7.74-9.62 46.27-50.03 10.6-12.04 6.54-8.1 4.78-6.47 3.73-5.52 3.02-4.9 2.48-4.43 2.07-4.08 1.74-3.83 1.47-3.64 1.24-3.47 1.04-3.35.86-3.24.7-3.16.55-3.1.43-3.1.28-3.05.16-3.07.02-3.08-.1-3.1-.25-3.15-.38-3.22-.53-3.3-.7-3.4-.88-3.53-1.08-3.67-1.3-3.85-1.58-4.07-1.5-3.4 1.84-.8z"
       id="path4275" />
    <path
       d="M1061.33 476.57l-1.83.8-.4-.92 1.8-.84zM946.02 721.92l-5.76 13.85-3.48-14.6z"
       id="path4277" />
    <path
       d="M947.47 721.04L940 739l-4.52-18.92zm-6.95 11.5l4.05-9.73-6.5-.5zM1079.7 970.12l16.05 2.7 19.67 2.48 25 2.07 34.2 1.4 5.9.05-.03 2-5.93-.06-34.28-1.4-25.1-2.07-19.74-2.5-16.13-2.7-13.5-2.87-6.2-1.6h8.35zM961.1 866.2l.3 4.87.5 4.58.63 4.34.8 4.1.9 3.93 1.06 3.75 1.16 3.6 1.3 3.5 1.4 3.35 1.54 3.27 1.67 3.2 1.8 3.1 1.93 3.05 2.08 3 2.25 2.95 2.4 2.92 2.62 2.9 2.82 2.87 3.05 2.85 3.3 2.86 3.63 2.87 3.94 2.87 4.33 2.88 3.66 2.22h-3.87l-.87-.53-4.4-2.92-4.02-2.9-3.68-2.92-3.38-2.92-3.1-2.92-2.9-2.94-2.65-2.95-2.47-3-2.3-3-2.13-3.08-1.98-3.12-1.83-3.18-1.7-3.26-1.58-3.35-1.45-3.45-1.33-3.55-1.2-3.7-1.07-3.83-.94-4-.8-4.2-.65-4.42-.48-4.66-.3-4.96-.1-4.26 2-.04z"
       id="path4279" />
    <path
       d="M961.02 862l-2 .05L959 861h2zM1195.76 979.97l-14.3 4.5.08-9.28z"
       id="path4281" />
    <path
       d="M1199 980l-18.56 5.83.12-12.02zm-16.53 3.1l10.06-3.16-10-3.36z"
       id="path4283" />
    <use
       xlink:href="#q"
       transform="matrix(1,0,0,1,951.9318715585769,946.0386899274781) translate(0 14.4)"
       id="use4285" />
    <use
       xlink:href="#r"
       transform="matrix(1,0,0,1,951.9318715585769,946.0386899274781) translate(56.95 14.4)"
       id="use4287" />
    <path
       d="M1500 1100h160v120h-160zm16 0v120m-16-104h160"
       stroke="#000"
       stroke-width="2"
       fill="#fff"
       id="path4289" />
    <use
       xlink:href="#s"
       transform="matrix(1,0,0,1,1521,1121) translate(39.575 50.6)"
       id="use4291" />
    <path
       d="M1498 1160h-118.5"
       stroke="#000"
       stroke-width="2"
       fill="none"
       id="path4293" />
    <path
       d="M1499 1161h-1.03v-2h1.03z"
       id="path4295" />
    <path
       d="M1364.24 1160l14.26-4.64v9.28z"
       stroke="#000"
       stroke-width="2"
       id="path4297" />
    <path
       d="M1200 1100h160v120h-160z"
       stroke="#000"
       stroke-width="2"
       fill="#fff"
       id="path4299" />
    <g
       id="g4303">
      <use
         xlink:href="#t"
         transform="matrix(1,0,0,1,1205,1105) translate(46.55 58.6)"
         id="use4301" />
    </g>
    <path
       d="M1280 1098v-38.5"
       stroke="#000"
       stroke-width="2"
       fill="none"
       id="path4305" />
    <path
       d="M1281 1099h-2v-1.03h2z"
       id="path4307" />
    <path
       d="M1280 1044.24l4.64 14.26h-9.28z"
       stroke="#000"
       stroke-width="2"
       id="path4309" />
    <defs
       id="defs4635">
      <path
         d="M240 0l2-218c-23 76-54 145-80 218h-23L58-218 59 0H30v-248h44l77 211c21-75 51-140 76-211h43V0h-30"
         id="u" />
      <path
         d="M100-194c62-1 85 37 85 99 1 63-27 99-86 99S16-35 15-95c0-66 28-99 85-99zM99-20c44 1 53-31 53-75 0-43-8-75-51-75s-53 32-53 75 10 74 51 75"
         id="v" />
      <path
         d="M9 0v-24l116-142H16v-24h144v24L44-24h123V0H9"
         id="w" />
      <path
         d="M24-231v-30h32v30H24zM24 0v-190h32V0H24"
         id="x" />
      <path
         d="M24 0v-261h32V0H24"
         id="y" />
      <path
         d="M141-36C126-15 110 5 73 4 37 3 15-17 15-53c-1-64 63-63 125-63 3-35-9-54-41-54-24 1-41 7-42 31l-33-3c5-37 33-52 76-52 45 0 72 20 72 64v82c-1 20 7 32 28 27v20c-31 9-61-2-59-35zM48-53c0 20 12 33 32 33 41-3 63-29 60-74-43 2-92-5-92 41"
         id="z" />
      <g
         id="a">
        <use
           transform="matrix(0.05,0,0,0.05,0,0)"
           xlink:href="#u"
           id="use4317" />
        <use
           transform="matrix(0.05,0,0,0.05,14.950000000000001,0)"
           xlink:href="#v"
           id="use4319" />
        <use
           transform="matrix(0.05,0,0,0.05,24.950000000000003,0)"
           xlink:href="#w"
           id="use4321" />
        <use
           transform="matrix(0.05,0,0,0.05,33.95,0)"
           xlink:href="#x"
           id="use4323" />
        <use
           transform="matrix(0.05,0,0,0.05,37.900000000000006,0)"
           xlink:href="#y"
           id="use4325" />
        <use
           transform="matrix(0.05,0,0,0.05,41.85000000000001,0)"
           xlink:href="#y"
           id="use4327" />
        <use
           transform="matrix(0.05,0,0,0.05,45.80000000000001,0)"
           xlink:href="#z"
           id="use4329" />
      </g>
      <path
         d="M137 0h-34L2-248h35l83 218 83-218h36"
         id="A" />
      <path
         d="M30-248c87 1 191-15 191 75 0 78-77 80-158 76V0H30v-248zm33 125c57 0 124 11 124-50 0-59-68-47-124-48v98"
         id="B" />
      <path
         d="M190 0L58-211 59 0H30v-248h39L202-35l-2-213h31V0h-41"
         id="C" />
      <g
         id="b">
        <use
           transform="matrix(0.05,0,0,0.05,0,0)"
           xlink:href="#A"
           id="use4335" />
        <use
           transform="matrix(0.05,0,0,0.05,12,0)"
           xlink:href="#B"
           id="use4337" />
        <use
           transform="matrix(0.05,0,0,0.05,24,0)"
           xlink:href="#C"
           id="use4339" />
      </g>
      <path
         d="M212-179c-10-28-35-45-73-45-59 0-87 40-87 99 0 60 29 101 89 101 43 0 62-24 78-52l27 14C228-24 195 4 139 4 59 4 22-46 18-125c-6-104 99-153 187-111 19 9 31 26 39 46"
         id="D" />
      <path
         d="M84 4C-5 8 30-112 23-190h32v120c0 31 7 50 39 49 72-2 45-101 50-169h31l1 190h-30c-1-10 1-25-2-33-11 22-28 36-60 37"
         id="E" />
      <path
         d="M85-194c31 0 48 13 60 33l-1-100h32l1 261h-30c-2-10 0-23-3-31C134-8 116 4 85 4 32 4 16-35 15-94c0-66 23-100 70-100zm9 24c-40 0-46 34-46 75 0 40 6 74 45 74 42 0 51-32 51-76 0-42-9-74-50-73"
         id="F" />
      <path
         d="M101-234c-31-9-42 10-38 44h38v23H63V0H32v-167H5v-23h27c-7-52 17-82 69-68v24"
         id="G" />
      <path
         d="M114-163C36-179 61-72 57 0H25l-1-190h30c1 12-1 29 2 39 6-27 23-49 58-41v29"
         id="H" />
      <path
         d="M117-194c89-4 53 116 60 194h-32v-121c0-31-8-49-39-48C34-167 62-67 57 0H25l-1-190h30c1 10-1 24 2 32 11-22 29-35 61-36"
         id="I" />
      <path
         d="M59-47c-2 24 18 29 38 22v24C64 9 27 4 27-40v-127H5v-23h24l9-43h21v43h35v23H59v120"
         id="J" />
      <g
         id="c">
        <use
           transform="matrix(0.05,0,0,0.05,0,0)"
           xlink:href="#D"
           id="use4349" />
        <use
           transform="matrix(0.05,0,0,0.05,12.950000000000001,0)"
           xlink:href="#y"
           id="use4351" />
        <use
           transform="matrix(0.05,0,0,0.05,16.900000000000002,0)"
           xlink:href="#v"
           id="use4353" />
        <use
           transform="matrix(0.05,0,0,0.05,26.900000000000002,0)"
           xlink:href="#E"
           id="use4355" />
        <use
           transform="matrix(0.05,0,0,0.05,36.900000000000006,0)"
           xlink:href="#F"
           id="use4357" />
        <use
           transform="matrix(0.05,0,0,0.05,46.900000000000006,0)"
           xlink:href="#G"
           id="use4359" />
        <use
           transform="matrix(0.05,0,0,0.05,51.900000000000006,0)"
           xlink:href="#H"
           id="use4361" />
        <use
           transform="matrix(0.05,0,0,0.05,57.85,0)"
           xlink:href="#v"
           id="use4363" />
        <use
           transform="matrix(0.05,0,0,0.05,67.85000000000001,0)"
           xlink:href="#I"
           id="use4365" />
        <use
           transform="matrix(0.05,0,0,0.05,77.85000000000001,0)"
           xlink:href="#J"
           id="use4367" />
      </g>
      <path
         d="M30-248c118-7 216 8 213 122C240-48 200 0 122 0H30v-248zM63-27c89 8 146-16 146-99s-60-101-146-95v194"
         id="K" />
      <g
         id="d">
        <use
           transform="matrix(0.05,0,0,0.05,0,0)"
           xlink:href="#D"
           id="use4371" />
        <use
           transform="matrix(0.05,0,0,0.05,12.950000000000001,0)"
           xlink:href="#K"
           id="use4373" />
        <use
           transform="matrix(0.05,0,0,0.05,25.900000000000002,0)"
           xlink:href="#C"
           id="use4375" />
      </g>
      <path
         d="M194 0L95-120 63-95V0H30v-248h33v124l119-124h40L117-140 236 0h-42"
         id="L" />
      <g
         id="e">
        <use
           transform="matrix(0.05,0,0,0.05,0,0)"
           xlink:href="#L"
           id="use4379" />
        <use
           transform="matrix(0.05,0,0,0.05,12,0)"
           xlink:href="#x"
           id="use4381" />
        <use
           transform="matrix(0.05,0,0,0.05,15.949999999999998,0)"
           xlink:href="#I"
           id="use4383" />
        <use
           transform="matrix(0.05,0,0,0.05,25.950000000000003,0)"
           xlink:href="#J"
           id="use4385" />
        <use
           transform="matrix(0.05,0,0,0.05,30.950000000000003,0)"
           xlink:href="#v"
           id="use4387" />
      </g>
      <path
         d="M87 75C49 33 22-17 22-94c0-76 28-126 65-167h31c-38 41-64 92-64 168S80 34 118 75H87"
         id="M" />
      <path
         d="M115-194c55 1 70 41 70 98S169 2 115 4C84 4 66-9 55-30l1 105H24l-1-265h31l2 30c10-21 28-34 59-34zm-8 174c40 0 45-34 45-75s-6-73-45-74c-42 0-51 32-51 76 0 43 10 73 51 73"
         id="N" />
      <path
         d="M115-194c53 0 69 39 70 98 0 66-23 100-70 100C84 3 66-7 56-30L54 0H23l1-261h32v101c10-23 28-34 59-34zm-8 174c40 0 45-34 45-75 0-40-5-75-45-74-42 0-51 32-51 76 0 43 10 73 51 73"
         id="O" />
      <path
         d="M96-169c-40 0-48 33-48 73s9 75 48 75c24 0 41-14 43-38l32 2c-6 37-31 61-74 61-59 0-76-41-82-99-10-93 101-131 147-64 4 7 5 14 7 22l-32 3c-4-21-16-35-41-35"
         id="P" />
      <path
         d="M33-261c38 41 65 92 65 168S71 34 33 75H2C39 34 66-17 66-93S39-220 2-261h31"
         id="Q" />
      <g
         id="f">
        <use
           transform="matrix(0.05,0,0,0.05,0,0)"
           xlink:href="#M"
           id="use4395" />
        <use
           transform="matrix(0.05,0,0,0.05,5.95,0)"
           xlink:href="#N"
           id="use4397" />
        <use
           transform="matrix(0.05,0,0,0.05,15.949999999999998,0)"
           xlink:href="#E"
           id="use4399" />
        <use
           transform="matrix(0.05,0,0,0.05,25.950000000000003,0)"
           xlink:href="#O"
           id="use4401" />
        <use
           transform="matrix(0.05,0,0,0.05,35.95,0)"
           xlink:href="#y"
           id="use4403" />
        <use
           transform="matrix(0.05,0,0,0.05,39.900000000000006,0)"
           xlink:href="#x"
           id="use4405" />
        <use
           transform="matrix(0.05,0,0,0.05,43.85000000000001,0)"
           xlink:href="#P"
           id="use4407" />
        <use
           transform="matrix(0.05,0,0,0.05,52.85,0)"
           xlink:href="#Q"
           id="use4409" />
      </g>
      <g
         id="g">
        <use
           transform="matrix(0.05,0,0,0.05,0,0)"
           xlink:href="#L"
           id="use4412" />
        <use
           transform="matrix(0.05,0,0,0.05,12,0)"
           xlink:href="#x"
           id="use4414" />
        <use
           transform="matrix(0.05,0,0,0.05,15.949999999999998,0)"
           xlink:href="#I"
           id="use4416" />
        <use
           transform="matrix(0.05,0,0,0.05,25.950000000000003,0)"
           xlink:href="#J"
           id="use4418" />
        <use
           transform="matrix(0.05,0,0,0.05,30.950000000000003,0)"
           xlink:href="#v"
           id="use4420" />
      </g>
      <path
         d="M108 0H70L1-190h34L89-25l56-165h34"
         id="R" />
      <path
         d="M100-194c63 0 86 42 84 106H49c0 40 14 67 53 68 26 1 43-12 49-29l28 8c-11 28-37 45-77 45C44 4 14-33 15-96c1-61 26-98 85-98zm52 81c6-60-76-77-97-28-3 7-6 17-6 28h103"
         id="S" />
      <g
         id="h">
        <use
           transform="matrix(0.05,0,0,0.05,0,0)"
           xlink:href="#M"
           id="use4425" />
        <use
           transform="matrix(0.05,0,0,0.05,5.95,0)"
           xlink:href="#N"
           id="use4427" />
        <use
           transform="matrix(0.05,0,0,0.05,15.949999999999998,0)"
           xlink:href="#H"
           id="use4429" />
        <use
           transform="matrix(0.05,0,0,0.05,21.9,0)"
           xlink:href="#x"
           id="use4431" />
        <use
           transform="matrix(0.05,0,0,0.05,25.849999999999994,0)"
           xlink:href="#R"
           id="use4433" />
        <use
           transform="matrix(0.05,0,0,0.05,34.849999999999994,0)"
           xlink:href="#z"
           id="use4435" />
        <use
           transform="matrix(0.05,0,0,0.05,44.849999999999994,0)"
           xlink:href="#J"
           id="use4437" />
        <use
           transform="matrix(0.05,0,0,0.05,49.849999999999994,0)"
           xlink:href="#S"
           id="use4439" />
        <use
           transform="matrix(0.05,0,0,0.05,59.849999999999994,0)"
           xlink:href="#Q"
           id="use4441" />
      </g>
      <path
         d="M135-143c-3-34-86-38-87 0 15 53 115 12 119 90S17 21 10-45l28-5c4 36 97 45 98 0-10-56-113-15-118-90-4-57 82-63 122-42 12 7 21 19 24 35"
         id="T" />
      <path
         d="M177-190C167-65 218 103 67 71c-23-6-38-20-44-43l32-5c15 47 100 32 89-28v-30C133-14 115 1 83 1 29 1 15-40 15-95c0-56 16-97 71-98 29-1 48 16 59 35 1-10 0-23 2-32h30zM94-22c36 0 50-32 50-73 0-42-14-75-50-75-39 0-46 34-46 75s6 73 46 73"
         id="U" />
      <path
         d="M185-189c-5-48-123-54-124 2 14 75 158 14 163 119 3 78-121 87-175 55-17-10-28-26-33-46l33-7c5 56 141 63 141-1 0-78-155-14-162-118-5-82 145-84 179-34 5 7 8 16 11 25"
         id="V" />
      <path
         d="M140-251c81 0 123 46 123 126C263-53 228-8 163 1c7 30 30 48 69 40v23c-55 16-95-15-103-61C56-3 17-48 17-125c0-80 42-126 123-126zm0 227c63 0 89-41 89-101s-29-99-89-99c-61 0-89 39-89 99S79-25 140-24"
         id="W" />
      <path
         d="M30 0v-248h33v221h125V0H30"
         id="X" />
      <g
         id="i">
        <use
           transform="matrix(0.05,0,0,0.05,0,0)"
           xlink:href="#B"
           id="use4449" />
        <use
           transform="matrix(0.05,0,0,0.05,12,0)"
           xlink:href="#v"
           id="use4451" />
        <use
           transform="matrix(0.05,0,0,0.05,22,0)"
           xlink:href="#T"
           id="use4453" />
        <use
           transform="matrix(0.05,0,0,0.05,31,0)"
           xlink:href="#J"
           id="use4455" />
        <use
           transform="matrix(0.05,0,0,0.05,36,0)"
           xlink:href="#U"
           id="use4457" />
        <use
           transform="matrix(0.05,0,0,0.05,46,0)"
           xlink:href="#H"
           id="use4459" />
        <use
           transform="matrix(0.05,0,0,0.05,51.95,0)"
           xlink:href="#S"
           id="use4461" />
        <use
           transform="matrix(0.05,0,0,0.05,61.95,0)"
           xlink:href="#V"
           id="use4463" />
        <use
           transform="matrix(0.05,0,0,0.05,73.95,0)"
           xlink:href="#W"
           id="use4465" />
        <use
           transform="matrix(0.05,0,0,0.05,87.95,0)"
           xlink:href="#X"
           id="use4467" />
      </g>
      <path
         d="M233-177c-1 41-23 64-60 70L243 0h-38l-65-103H63V0H30v-248c88 3 205-21 203 71zM63-129c60-2 137 13 137-47 0-61-80-42-137-45v92"
         id="Y" />
      <g
         id="j">
        <use
           transform="matrix(0.05,0,0,0.05,0,0)"
           xlink:href="#Y"
           id="use4471" />
        <use
           transform="matrix(0.05,0,0,0.05,12.950000000000001,0)"
           xlink:href="#K"
           id="use4473" />
        <use
           transform="matrix(0.05,0,0,0.05,25.900000000000002,0)"
           xlink:href="#V"
           id="use4475" />
      </g>
      <path
         d="M179-190L93 31C79 59 56 82 12 73V49c39 6 53-20 64-50L1-190h34L92-34l54-156h33"
         id="Z" />
      <g
         id="k">
        <use
           transform="matrix(0.05,0,0,0.05,0,0)"
           xlink:href="#H"
           id="use4479" />
        <use
           transform="matrix(0.05,0,0,0.05,5.95,0)"
           xlink:href="#S"
           id="use4481" />
        <use
           transform="matrix(0.05,0,0,0.05,15.949999999999998,0)"
           xlink:href="#z"
           id="use4483" />
        <use
           transform="matrix(0.05,0,0,0.05,25.950000000000003,0)"
           xlink:href="#F"
           id="use4485" />
        <use
           transform="matrix(0.05,0,0,0.05,35.95,0)"
           xlink:href="#v"
           id="use4487" />
        <use
           transform="matrix(0.05,0,0,0.05,45.95,0)"
           xlink:href="#I"
           id="use4489" />
        <use
           transform="matrix(0.05,0,0,0.05,55.95,0)"
           xlink:href="#y"
           id="use4491" />
        <use
           transform="matrix(0.05,0,0,0.05,59.900000000000006,0)"
           xlink:href="#Z"
           id="use4493" />
      </g>
      <path
         d="M206 0h-36l-40-164L89 0H53L-1-190h32L70-26l43-164h34l41 164 42-164h31"
         id="aa" />
      <g
         id="l">
        <use
           transform="matrix(0.05,0,0,0.05,0,0)"
           xlink:href="#aa"
           id="use4497" />
        <use
           transform="matrix(0.05,0,0,0.05,12.950000000000001,0)"
           xlink:href="#H"
           id="use4499" />
        <use
           transform="matrix(0.05,0,0,0.05,18.900000000000002,0)"
           xlink:href="#x"
           id="use4501" />
        <use
           transform="matrix(0.05,0,0,0.05,22.85,0)"
           xlink:href="#J"
           id="use4503" />
        <use
           transform="matrix(0.05,0,0,0.05,27.85,0)"
           xlink:href="#S"
           id="use4505" />
      </g>
      <path
         d="M205 0l-28-72H64L36 0H1l101-248h38L239 0h-34zm-38-99l-47-123c-12 45-31 82-46 123h93"
         id="ab" />
      <path
         d="M106-169C34-169 62-67 57 0H25v-261h32l-1 103c12-21 28-36 61-36 89 0 53 116 60 194h-32v-121c2-32-8-49-39-48"
         id="ac" />
      <g
         id="m">
        <use
           transform="matrix(0.05,0,0,0.05,0,0)"
           xlink:href="#ab"
           id="use4510" />
        <use
           transform="matrix(0.05,0,0,0.05,12,0)"
           xlink:href="#E"
           id="use4512" />
        <use
           transform="matrix(0.05,0,0,0.05,22,0)"
           xlink:href="#J"
           id="use4514" />
        <use
           transform="matrix(0.05,0,0,0.05,27,0)"
           xlink:href="#v"
           id="use4516" />
        <use
           transform="matrix(0.05,0,0,0.05,37,0)"
           xlink:href="#U"
           id="use4518" />
        <use
           transform="matrix(0.05,0,0,0.05,47,0)"
           xlink:href="#H"
           id="use4520" />
        <use
           transform="matrix(0.05,0,0,0.05,52.95,0)"
           xlink:href="#z"
           id="use4522" />
        <use
           transform="matrix(0.05,0,0,0.05,62.95,0)"
           xlink:href="#N"
           id="use4524" />
        <use
           transform="matrix(0.05,0,0,0.05,72.95,0)"
           xlink:href="#ac"
           id="use4526" />
      </g>
      <g
         id="n">
        <use
           transform="matrix(0.05,0,0,0.05,0,0)"
           xlink:href="#T"
           id="use4529" />
        <use
           transform="matrix(0.05,0,0,0.05,9,0)"
           xlink:href="#x"
           id="use4531" />
        <use
           transform="matrix(0.05,0,0,0.05,12.949999999999998,0)"
           xlink:href="#U"
           id="use4533" />
        <use
           transform="matrix(0.05,0,0,0.05,22.95,0)"
           xlink:href="#I"
           id="use4535" />
        <use
           transform="matrix(0.05,0,0,0.05,32.95,0)"
           xlink:href="#S"
           id="use4537" />
        <use
           transform="matrix(0.05,0,0,0.05,42.95,0)"
           xlink:href="#H"
           id="use4539" />
      </g>
      <path
         d="M266 0h-40l-56-210L115 0H75L2-248h35L96-30l15-64 43-154h32l59 218 59-218h35"
         id="ad" />
      <g
         id="o">
        <use
           transform="matrix(0.05,0,0,0.05,0,0)"
           xlink:href="#ab"
           id="use4543" />
        <use
           transform="matrix(0.05,0,0,0.05,11.35,0)"
           xlink:href="#ad"
           id="use4545" />
        <use
           transform="matrix(0.05,0,0,0.05,28.299999999999997,0)"
           xlink:href="#V"
           id="use4547" />
      </g>
      <path
         d="M210-169c-67 3-38 105-44 169h-31v-121c0-29-5-50-35-48C34-165 62-65 56 0H25l-1-190h30c1 10-1 24 2 32 10-44 99-50 107 0 11-21 27-35 58-36 85-2 47 119 55 194h-31v-121c0-29-5-49-35-48"
         id="ae" />
      <g
         id="p">
        <use
           transform="matrix(0.05,0,0,0.05,0,0)"
           xlink:href="#X"
           id="use4551" />
        <use
           transform="matrix(0.05,0,0,0.05,10,0)"
           xlink:href="#z"
           id="use4553" />
        <use
           transform="matrix(0.05,0,0,0.05,20,0)"
           xlink:href="#ae"
           id="use4555" />
        <use
           transform="matrix(0.05,0,0,0.05,34.95,0)"
           xlink:href="#O"
           id="use4557" />
        <use
           transform="matrix(0.05,0,0,0.05,44.95,0)"
           xlink:href="#F"
           id="use4559" />
        <use
           transform="matrix(0.05,0,0,0.05,54.95,0)"
           xlink:href="#z"
           id="use4561" />
        <use
           transform="matrix(0.05,0,0,0.05,64.95,0)"
           xlink:href="#T"
           id="use4563" />
      </g>
      <g
         id="q">
        <use
           transform="matrix(0.05,0,0,0.05,0,0)"
           xlink:href="#D"
           id="use4566" />
        <use
           transform="matrix(0.05,0,0,0.05,12.950000000000001,0)"
           xlink:href="#z"
           id="use4568" />
        <use
           transform="matrix(0.05,0,0,0.05,22.950000000000003,0)"
           xlink:href="#P"
           id="use4570" />
        <use
           transform="matrix(0.05,0,0,0.05,31.950000000000003,0)"
           xlink:href="#ac"
           id="use4572" />
        <use
           transform="matrix(0.05,0,0,0.05,41.95,0)"
           xlink:href="#S"
           id="use4574" />
      </g>
      <g
         id="r">
        <use
           transform="matrix(0.05,0,0,0.05,0,0)"
           xlink:href="#x"
           id="use4577" />
        <use
           transform="matrix(0.05,0,0,0.05,3.95,0)"
           xlink:href="#I"
           id="use4579" />
        <use
           transform="matrix(0.05,0,0,0.05,13.949999999999998,0)"
           xlink:href="#R"
           id="use4581" />
        <use
           transform="matrix(0.05,0,0,0.05,22.95,0)"
           xlink:href="#z"
           id="use4583" />
        <use
           transform="matrix(0.05,0,0,0.05,32.95,0)"
           xlink:href="#y"
           id="use4585" />
        <use
           transform="matrix(0.05,0,0,0.05,36.900000000000006,0)"
           xlink:href="#x"
           id="use4587" />
        <use
           transform="matrix(0.05,0,0,0.05,40.85000000000001,0)"
           xlink:href="#F"
           id="use4589" />
        <use
           transform="matrix(0.05,0,0,0.05,50.85000000000001,0)"
           xlink:href="#z"
           id="use4591" />
        <use
           transform="matrix(0.05,0,0,0.05,60.85,0)"
           xlink:href="#J"
           id="use4593" />
        <use
           transform="matrix(0.05,0,0,0.05,65.85000000000001,0)"
           xlink:href="#x"
           id="use4595" />
        <use
           transform="matrix(0.05,0,0,0.05,69.80000000000001,0)"
           xlink:href="#v"
           id="use4597" />
        <use
           transform="matrix(0.05,0,0,0.05,79.80000000000001,0)"
           xlink:href="#I"
           id="use4599" />
        <use
           transform="matrix(0.05,0,0,0.05,89.80000000000001,0)"
           xlink:href="#T"
           id="use4601" />
      </g>
      <path
         d="M63-220v92h138v28H63V0H30v-248h175v28H63"
         id="af" />
      <path
         d="M141 0L90-78 38 0H4l68-98-65-92h35l48 74 47-74h35l-64 92 68 98h-35"
         id="ag" />
      <g
         id="s">
        <use
           transform="matrix(0.05,0,0,0.05,0,0)"
           xlink:href="#af"
           id="use4606" />
        <use
           transform="matrix(0.05,0,0,0.05,10.950000000000001,0)"
           xlink:href="#x"
           id="use4608" />
        <use
           transform="matrix(0.05,0,0,0.05,14.9,0)"
           xlink:href="#H"
           id="use4610" />
        <use
           transform="matrix(0.05,0,0,0.05,20.85,0)"
           xlink:href="#S"
           id="use4612" />
        <use
           transform="matrix(0.05,0,0,0.05,30.85,0)"
           xlink:href="#G"
           id="use4614" />
        <use
           transform="matrix(0.05,0,0,0.05,35.85,0)"
           xlink:href="#v"
           id="use4616" />
        <use
           transform="matrix(0.05,0,0,0.05,45.85,0)"
           xlink:href="#ag"
           id="use4618" />
      </g>
      <path
         d="M143 4C61 4 22-44 18-125c-5-107 100-154 193-111 17 8 29 25 37 43l-32 9c-13-25-37-40-76-40-61 0-88 39-88 99 0 61 29 100 91 101 35 0 62-11 79-27v-45h-74v-28h105v86C228-13 192 4 143 4"
         id="ah" />
      <path
         d="M33 0v-248h34V0H33"
         id="ai" />
      <path
         d="M195 0l-74-108L45 0H8l94-129-87-119h37l69 98 67-98h37l-84 118L233 0h-38"
         id="aj" />
      <g
         id="t">
        <use
           transform="matrix(0.05,0,0,0.05,0,0)"
           xlink:href="#C"
           id="use4624" />
        <use
           transform="matrix(0.05,0,0,0.05,12.950000000000001,0)"
           xlink:href="#ah"
           id="use4626" />
        <use
           transform="matrix(0.05,0,0,0.05,26.950000000000003,0)"
           xlink:href="#ai"
           id="use4628" />
        <use
           transform="matrix(0.05,0,0,0.05,31.950000000000003,0)"
           xlink:href="#C"
           id="use4630" />
        <use
           transform="matrix(0.05,0,0,0.05,44.900000000000006,0)"
           xlink:href="#aj"
           id="use4632" />
      </g>
    </defs>
  </g>
  <circle
     id="remotesettings--writer-heartbeat"
     cx="459.20554"
     cy="461.01437"
     r="17.559423"
     inkscape:label="#path4647" />
  <circle
     id="remotesettings--public-heartbeat"
     cx="780.06415"
     cy="459.41809"
     r="17.559423"
     inkscape:label="#path4647" />
  <circle
     id="remotesettings--cloudfront-invalidation"
     cx="349.06009"
     cy="613.72815"
     r="17.559423"
     inkscape:label="#path4647" />
</svg>
